<svg version="1.1" id="Layer_1" xmlns="http://www.w3.org/2000/svg" xmlns:xlink="http://www.w3.org/1999/xlink" x="0px" y="0px"
	 width="100%" viewBox="0 0 1024 1024" enable-background="new 0 0 1024 1024" xml:space="preserve">
<path fill="#000000" opacity="1.000000" stroke="none" 
	d="
M377.232056,389.810547 
	C421.846069,431.372467 466.576721,472.289185 512.631836,512.637878 
	C523.196167,503.139069 533.587769,493.833649 543.936096,484.480255 
	C554.688782,474.761353 565.395752,464.991852 576.133728,455.256592 
	C577.360535,454.144379 578.539429,452.820068 580.344727,452.766113 
	C589.494263,452.492645 598.635559,451.527649 607.798401,452.379974 
	C608.240417,452.421051 608.649597,452.814423 609.106628,453.061340 
	C609.292969,455.600037 607.154419,456.471344 605.780090,457.697815 
	C576.327271,483.982056 546.762024,510.140808 517.410278,536.537109 
	C513.326294,540.209839 510.852875,538.604736 507.787354,535.700684 
	C483.956421,513.124756 459.342194,491.408417 434.934998,469.465607 
	C405.448883,442.956696 376.374359,415.986725 346.232239,390.211884 
	C341.274445,385.972351 341.175049,385.850037 345.816620,381.556854 
	C367.955048,361.080170 390.161530,340.677032 412.326752,320.229279 
	C414.779938,317.966187 417.537781,316.973846 420.927765,316.978058 
	C469.089966,317.037781 517.252258,317.008911 565.414551,317.033752 
	C567.350220,317.034760 569.445190,316.620056 571.656128,318.732483 
	C541.191467,350.510345 508.981781,380.484985 478.076294,411.841339 
	C479.785309,413.440765 481.353027,412.973267 482.773804,412.973907 
	C527.935913,412.994781 573.098145,412.960083 618.260132,413.025696 
	C621.632019,413.030609 624.264404,412.186584 626.761780,409.796478 
	C633.861877,403.001373 641.074524,396.312347 648.477173,389.849915 
	C651.915466,386.848389 652.099976,384.720703 648.676208,381.488129 
	C626.506104,360.555695 604.660583,339.277191 582.365784,318.479736 
	C560.437012,298.023804 538.103760,278.001556 515.939026,257.798798 
	C515.098450,257.032562 514.164795,256.368347 512.867920,255.331589 
	C504.784119,262.651733 496.709198,269.802643 488.819000,277.151886 
	C480.164062,285.213470 471.674469,293.452667 463.126862,301.629150 
	C462.030365,302.678070 460.949066,303.865082 459.362305,303.897797 
	C449.913757,304.092834 440.447296,304.632874 431.093964,303.263367 
	C430.587219,300.970093 432.201355,300.298676 433.208801,299.371796 
	C457.609314,276.923004 482.034363,254.500885 506.455780,232.074783 
	C512.721497,226.321014 512.748047,226.294846 519.103394,232.199402 
	C552.548584,263.272461 585.942688,294.400574 619.430481,325.427643 
	C638.493896,343.090332 657.704346,360.594330 676.841248,378.177826 
	C678.067688,379.304718 679.160767,380.584564 680.436646,381.648315 
	C683.340027,384.069000 683.533020,385.904724 680.446899,388.783264 
	C663.633850,404.465393 647.026184,420.368744 630.440918,436.292969 
	C628.235718,438.410309 625.984863,439.391846 622.923706,439.388275 
	C566.928345,439.323151 510.932831,439.318329 454.937439,439.372223 
	C451.869019,439.375153 449.624634,438.521118 447.564117,436.132141 
	C443.541656,431.468506 439.258514,427.021027 434.941864,422.622894 
	C432.125671,419.753571 432.269623,417.689850 435.333099,414.843719 
	C457.790009,393.979889 480.084564,372.941315 502.429871,351.957397 
	C505.042297,349.504150 507.652130,347.048187 510.460480,344.407990 
	C507.975037,342.861664 506.103851,343.356995 504.344482,343.354797 
	C478.680023,343.322601 453.015198,343.407959 427.351288,343.286499 
	C423.395538,343.267792 420.455322,344.505981 417.528351,347.128876 
	C404.254669,359.023560 390.828735,370.749451 377.379791,382.446594 
	C374.615601,384.850616 373.537201,386.990356 377.232056,389.810547 
z"/>
<path fill="#000000" opacity="1.000000" stroke="none" 
	d="
M590.043701,657.611206 
	C588.377075,663.455872 583.964355,660.967590 580.743164,661.049561 
	C577.351196,661.135986 577.839417,657.994385 577.827820,655.767395 
	C577.758423,642.441223 577.869202,629.113525 577.697998,615.789124 
	C577.647461,611.854065 579.120483,610.561768 582.979675,610.612305 
	C595.637695,610.778442 608.299316,610.705994 620.959229,610.649292 
	C623.685547,610.637146 626.252380,611.259766 628.763123,612.131653 
	C636.022278,614.652588 639.185364,618.676758 639.604553,625.414856 
	C640.064270,632.805664 637.726501,638.496887 630.420898,641.399780 
	C629.516235,641.759277 628.688965,642.313538 627.347290,643.034790 
	C631.552124,649.348816 637.552307,653.894653 642.115540,659.866089 
	C634.121704,662.777344 629.337219,661.789490 624.538635,656.638916 
	C624.425049,656.517029 624.314026,656.392883 624.199890,656.271545 
	C612.286011,643.604431 612.288025,643.701843 594.941467,644.062256 
	C591.139160,644.141235 589.921753,645.634033 590.121277,649.159912 
	C590.271545,651.815186 590.109619,654.488098 590.043701,657.611206 
M598.603394,634.692932 
	C605.413940,634.689148 612.227844,634.815125 619.033936,634.640015 
	C624.329224,634.503723 627.799622,631.169067 627.594727,626.877502 
	C627.407654,622.960266 624.215881,620.389465 619.112305,620.336914 
	C610.973633,620.252991 602.833374,620.299316 594.693909,620.336792 
	C593.248901,620.343506 591.236206,619.917603 590.707092,621.590027 
	C589.539185,625.281372 589.535339,629.310364 590.604614,632.882874 
	C591.604248,636.223267 595.224243,634.179688 598.603394,634.692932 
z"/>
<path fill="#000000" opacity="1.000000" stroke="none" 
	d="
M452.281616,623.016785 
	C452.249420,633.499695 452.295776,643.487305 452.139191,653.471802 
	C452.099854,655.978882 453.257263,659.487061 450.165924,660.608948 
	C446.799927,661.830505 442.896271,662.208984 439.692596,659.640442 
	C433.982086,655.061890 428.359589,650.372925 422.728729,645.695801 
	C415.560211,639.741394 408.426025,633.745667 401.258118,627.790527 
	C400.541748,627.195312 399.694702,626.757385 398.096344,625.718872 
	C398.096344,635.974670 397.957733,645.401245 398.155670,654.820740 
	C398.252594,659.433228 396.717987,661.392944 391.833374,661.359741 
	C387.774658,661.332031 386.270874,660.229248 386.292358,656.026978 
	C386.362061,642.383789 386.115234,628.738586 385.932617,615.094849 
	C385.890900,611.975952 387.130798,610.668457 390.375336,610.609192 
	C395.152496,610.521912 399.112823,611.175964 403.044861,614.749390 
	C413.257446,624.030701 424.076019,632.645813 434.670776,641.505188 
	C436.037872,642.648315 437.511902,643.663574 439.429077,645.109741 
	C440.588623,638.470459 439.876953,632.368591 440.060852,626.314575 
	C440.151764,623.321045 440.078522,620.322937 440.110748,617.327209 
	C440.176361,611.229614 444.499084,608.534973 450.344025,610.849426 
	C451.910797,611.469788 452.135803,612.677124 452.170227,614.033447 
	C452.242065,616.861572 452.250519,619.691284 452.281616,623.016785 
z"/>
<path fill="#000000" opacity="1.000000" stroke="none" 
	d="
M822.910522,618.630249 
	C820.861389,620.652222 818.597656,620.141541 816.488525,620.155334 
	C806.327454,620.221863 796.163086,620.338623 786.005737,620.137939 
	C781.917664,620.057190 780.893127,621.881409 780.847351,625.536804 
	C780.800293,629.291809 782.019897,631.006531 786.019104,630.927612 
	C795.677307,630.737061 805.342529,630.918396 815.002014,630.766235 
	C818.219116,630.715515 820.055969,631.544006 820.145142,635.121948 
	C820.234741,638.718323 818.768555,640.294250 815.142029,640.268188 
	C805.647583,640.199951 796.149902,640.399231 786.658020,640.236084 
	C782.772644,640.169312 780.821167,641.179993 780.845398,645.510315 
	C780.869629,649.825256 782.046082,651.916870 786.828247,651.813538 
	C797.316956,651.586792 807.815247,651.817749 818.309631,651.835144 
	C821.475830,651.840454 824.256287,651.825134 824.300659,656.387024 
	C824.346619,661.122009 821.640930,661.272217 818.139282,661.259705 
	C803.480530,661.207336 788.820068,661.186340 774.163025,661.372803 
	C770.128967,661.424072 768.546448,660.164917 768.611633,655.945618 
	C768.817505,642.622253 768.822021,629.291687 768.612000,615.968445 
	C768.544861,611.710815 770.192139,610.569763 774.184509,610.617737 
	C788.175293,610.785767 802.169373,610.673889 816.162231,610.677307 
	C823.594604,610.679199 823.594604,610.687561 822.910522,618.630249 
z"/>
<path fill="#000000" opacity="1.000000" stroke="none" 
	d="
M246.781601,631.818237 
	C238.850510,638.093628 231.200409,644.147461 222.715363,650.862000 
	C227.941147,652.082153 232.074097,651.645386 236.154175,651.687744 
	C243.319733,651.762268 250.486877,651.766907 257.652618,651.709045 
	C260.926086,651.682617 263.452087,651.845093 263.470917,656.360168 
	C263.488953,660.692139 261.355194,661.229919 257.876129,661.215393 
	C241.544342,661.146973 225.211914,661.238953 208.879959,661.191833 
	C206.739059,661.185608 203.831253,662.212952 203.212357,658.775085 
	C202.652191,655.663574 202.359283,652.832458 205.637924,650.368469 
	C216.286560,642.365601 226.662125,633.998779 237.119324,625.742432 
	C238.519821,624.636658 239.785217,623.359741 241.112656,622.162537 
	C239.552887,619.566406 237.340012,620.352905 235.509232,620.324890 
	C226.844498,620.191956 218.176559,620.103516 209.512039,620.201111 
	C205.787216,620.243042 204.056335,618.940796 203.962036,615.020874 
	C203.858475,610.716003 206.453522,610.685547 209.510468,610.691833 
	C225.176270,610.723877 240.842392,610.660034 256.507843,610.738708 
	C258.487671,610.748718 261.375061,609.727661 262.053436,612.622742 
	C262.762482,615.648743 263.035187,618.833496 259.870239,621.218872 
	C255.484970,624.524109 251.321213,628.123291 246.781601,631.818237 
z"/>
<path fill="#000000" opacity="1.000000" stroke="none" 
	d="
M674.904907,648.971985 
	C682.065369,637.522339 689.017029,626.369385 696.012817,615.244202 
	C700.218384,608.556274 710.098633,608.531250 714.324890,615.207947 
	C723.044006,628.982605 731.713562,642.788513 740.416260,656.573486 
	C741.117859,657.684998 741.947937,658.724121 741.803101,660.112366 
	C733.911072,662.933350 729.857544,661.853699 726.057617,655.123291 
	C723.568176,650.713928 720.573486,648.759521 715.347534,649.136780 
	C708.392822,649.638855 701.366577,649.540344 694.391785,649.232056 
	C689.891663,649.033142 687.050293,650.359314 684.752014,654.450806 
	C680.462341,662.087646 678.082520,662.727356 668.347168,660.287537 
	C669.562195,656.046448 672.881775,653.053101 674.904907,648.971985 
M715.794556,639.771973 
	C713.888000,633.148376 709.165344,628.328491 705.308167,622.114197 
	C700.887390,627.947449 697.381165,633.243713 694.660095,639.269165 
	C695.739014,639.781433 696.302246,640.233521 696.912537,640.309937 
	C703.053162,641.079529 709.184814,640.358215 715.794556,639.771973 
z"/>
<path fill="#000000" opacity="1.000000" stroke="none" 
	d="
M535.802856,635.722656 
	C531.354919,643.191528 527.165649,650.390259 522.799316,657.479980 
	C519.373108,663.043213 510.046600,663.052917 506.663269,657.489319 
	C498.268494,643.684875 489.966553,629.823853 481.675629,615.956665 
	C480.863434,614.598267 479.473480,613.355652 480.048401,611.468506 
	C489.681274,608.917175 492.330475,609.981079 497.041779,618.055054 
	C502.735382,627.812561 508.491150,637.533875 514.371948,647.529053 
	C517.187500,645.790222 518.043945,643.170227 519.356628,640.988464 
	C524.164551,632.997864 528.760742,624.879700 533.585144,616.899353 
	C537.723083,610.054504 540.923279,609.055481 549.679626,611.773438 
	C545.916077,620.180237 540.116638,627.331726 535.802856,635.722656 
z"/>
<path fill="#000000" opacity="1.000000" stroke="none" 
	d="
M354.294586,616.237305 
	C347.651093,623.292480 341.416046,630.246094 334.803223,636.819702 
	C331.607666,639.996338 329.803833,643.285278 330.287476,647.828003 
	C330.515564,649.970215 330.326294,652.156799 330.325714,654.323303 
	C330.323944,660.844360 327.759827,662.753479 321.364136,661.083191 
	C319.919983,660.706055 318.931183,660.043152 318.793121,658.477539 
	C318.720062,657.648865 318.543549,656.785828 318.687866,655.987915 
	C320.577789,645.538696 316.130615,637.954651 308.493561,631.229309 
	C302.891907,626.296448 298.117340,620.421204 293.012238,614.930542 
	C292.157318,614.011108 290.874756,613.222900 291.439880,611.024414 
	C297.744080,610.768494 304.075256,608.966492 309.212402,615.552734 
	C313.681213,621.282227 319.125641,626.250732 324.661926,632.108887 
	C329.345734,627.061462 334.227325,622.708008 337.980347,617.535583 
	C343.102112,610.476562 349.624146,609.550903 357.376526,611.226379 
	C358.052094,613.761597 355.554474,614.442322 354.294586,616.237305 
z"/>
</svg>